<?xml version="1.0" encoding="UTF-8" standalone="no"?>
<!-- Created with Inkscape (http://www.inkscape.org/) -->

<svg
   xmlns:dc="http://purl.org/dc/elements/1.1/"
   xmlns:cc="http://creativecommons.org/ns#"
   xmlns:rdf="http://www.w3.org/1999/02/22-rdf-syntax-ns#"
   xmlns:svg="http://www.w3.org/2000/svg"
   xmlns="http://www.w3.org/2000/svg"
   xmlns:sodipodi="http://sodipodi.sourceforge.net/DTD/sodipodi-0.dtd"
   xmlns:inkscape="http://www.inkscape.org/namespaces/inkscape"
   width="95mm"
   height="50mm"
   viewBox="0 0 336.61417 177.16535"
   id="svg4194"
   version="1.1"
   inkscape:version="0.91 r13725"
   sodipodi:docname="logo_.svg">
  <defs
     id="defs4196" />
  <sodipodi:namedview
     id="base"
     pagecolor="#ffffff"
     bordercolor="#666666"
     borderopacity="1.0"
     inkscape:pageopacity="0.0"
     inkscape:pageshadow="2"
     inkscape:zoom="2.8284271"
     inkscape:cx="175.3152"
     inkscape:cy="96.754287"
     inkscape:document-units="px"
     inkscape:current-layer="layer1"
     showgrid="false"
     inkscape:window-width="1366"
     inkscape:window-height="746"
     inkscape:window-x="-8"
     inkscape:window-y="-8"
     inkscape:window-maximized="1">
    <inkscape:grid
       type="xygrid"
       id="grid4762" />
  </sodipodi:namedview>
  <metadata
     id="metadata4199">
    <rdf:RDF>
      <cc:Work
         rdf:about="">
        <dc:format>image/svg+xml</dc:format>
        <dc:type
           rdf:resource="http://purl.org/dc/dcmitype/StillImage" />
        <dc:title />
      </cc:Work>
    </rdf:RDF>
  </metadata>
  <g
     inkscape:label="Layer 1"
     inkscape:groupmode="layer"
     id="layer1"
     transform="translate(0,-875.19685)">
    <text
       xml:space="preserve"
       style="font-style:normal;font-weight:normal;font-size:196.01019287px;line-height:125%;font-family:sans-serif;letter-spacing:0px;word-spacing:0px;fill:#000000;fill-opacity:1;stroke:none;stroke-width:1px;stroke-linecap:butt;stroke-linejoin:miter;stroke-opacity:1"
       x="11.492202"
       y="1065.3284"
       id="text4202"
       sodipodi:linespacing="125%"
       transform="scale(1.0321357,0.96886484)"><tspan
         sodipodi:role="line"
         id="tspan4204"
         x="11.492202"
         y="1065.3284"
         style="font-style:normal;font-variant:normal;font-weight:normal;font-stretch:condensed;font-family:'Agency FB';-inkscape-font-specification:'Agency FB Condensed'" /></text>
    <path
       style="opacity:1;fill:#068be9;fill-opacity:1;stroke:#068be9;stroke-width:0;stroke-miterlimit:4;stroke-dasharray:none;stroke-opacity:1"
       d="M 6.1523438 53.0625 C 5.9431254 53.0625 5.7753906 53.232188 5.7753906 53.441406 L 5.7753906 73.404297 L 5.7753906 83.914062 L 5.7753906 174.25977 C 5.7753906 174.95219 6.3310168 175.50977 7.0234375 175.50977 L 16.253906 175.50977 C 16.946327 175.50977 17.503906 174.95219 17.503906 174.25977 L 17.503906 73.404297 C 17.503906 72.711876 16.946327 72.154297 16.253906 72.154297 L 13.966797 72.154297 L 13.966797 53.441406 C 13.966797 53.232188 13.799062 53.0625 13.589844 53.0625 L 6.1523438 53.0625 z "
       transform="translate(0,875.19684)"
       id="rect4206" />
    <path
       style="opacity:1;fill:#ffffff;fill-opacity:0;stroke:#068be9;stroke-width:9.38000011;stroke-miterlimit:4;stroke-dasharray:none;stroke-opacity:1"
       id="path4208"
       sodipodi:type="arc"
       sodipodi:cx="58.651215"
       sodipodi:cy="929.56787"
       sodipodi:rx="48.577667"
       sodipodi:ry="46.945145"
       sodipodi:start="6.2672679"
       sodipodi:end="6.2661088"
       sodipodi:open="true"
       d="M 107.22273,928.82066 A 48.577667,46.945145 0 0 1 59.438487,976.50685 48.577667,46.945145 0 0 1 10.080157,930.34229 48.577667,46.945145 0 0 1 57.835793,882.62934 48.577667,46.945145 0 0 1 107.2218,928.76625" />
    <text
       xml:space="preserve"
       style="font-style:normal;font-weight:normal;font-size:60px;line-height:125%;font-family:sans-serif;letter-spacing:0px;word-spacing:0px;fill:#000000;fill-opacity:1;stroke:none;stroke-width:1px;stroke-linecap:butt;stroke-linejoin:miter;stroke-opacity:1"
       x="155"
       y="1027.3622"
       id="text4764"
       sodipodi:linespacing="125%"><tspan
         sodipodi:role="line"
         id="tspan4766"
         x="155"
         y="1027.3622" /></text>
    <text
       xml:space="preserve"
       style="font-style:normal;font-weight:normal;font-size:60px;line-height:125%;font-family:sans-serif;letter-spacing:0px;word-spacing:0px;fill:#000000;fill-opacity:1;stroke:none;stroke-width:1px;stroke-linecap:butt;stroke-linejoin:miter;stroke-opacity:1"
       x="160"
       y="1012.3622"
       id="text4775"
       sodipodi:linespacing="125%"><tspan
         sodipodi:role="line"
         id="tspan4777"
         x="160"
         y="1012.3622" /></text>
    <rect
       ry="0.81989545"
       y="982.90649"
       x="181.77448"
       height="67.799156"
       width="12.228798"
       id="rect4813"
       style="opacity:1;fill:#068be9;fill-opacity:1;stroke:#068be9;stroke-width:0;stroke-miterlimit:4;stroke-dasharray:none;stroke-opacity:1" />
    <path
       style="opacity:1;fill:#ffffff;fill-opacity:0;stroke:#068be9;stroke-width:3.18000007;stroke-linecap:butt;stroke-miterlimit:4;stroke-dasharray:none;stroke-opacity:1"
       id="path4815"
       sodipodi:type="arc"
       sodipodi:cx="217.06313"
       sodipodi:cy="955.92999"
       sodipodi:rx="6.3664107"
       sodipodi:ry="6.2509723"
       sodipodi:start="6.2672679"
       sodipodi:end="6.266116"
       sodipodi:open="true"
       d="m 223.42873,955.8305 a 6.3664107,6.2509723 0 0 1 -6.26244,6.34964 6.3664107,6.2509723 0 0 1 -6.46871,-6.14705 6.3664107,6.2509723 0 0 1 6.25871,-6.35319 6.3664107,6.2509723 0 0 1 6.47232,6.1434" />
    <rect
       style="opacity:1;fill:#068be9;fill-opacity:1;stroke:#068be9;stroke-width:0;stroke-miterlimit:4;stroke-dasharray:none;stroke-opacity:1"
       id="rect4817"
       width="12.728794"
       height="128.87057"
       x="231.77448"
       y="921.83502"
       ry="1.5584325" />
    <rect
       ry="1.4236683"
       y="963.89563"
       x="206.90077"
       height="12.370546"
       width="62.957111"
       id="rect4819"
       style="opacity:1;fill:#068be9;fill-opacity:1;stroke:#068be9;stroke-width:0;stroke-miterlimit:4;stroke-dasharray:none;stroke-opacity:1" />
    <path
       style="opacity:0.97781958;fill:#068be9;fill-opacity:1;stroke:#ffffff;stroke-width:0;stroke-linecap:butt;stroke-miterlimit:4;stroke-dasharray:none;stroke-opacity:1"
       d="m 295.56641,990.51944 c -16.45243,0.27812 -29.56697,13.92346 -29.29493,30.48046 0.27144,16.5571 13.82668,29.7591 30.2793,29.4903 11.63461,-0.2053 22.0862,-7.2071 26.76367,-17.9297 -0.49034,-3.0596 -9.40082,-3.3571 -11.49804,0 -3.6847,4.8346 -9.3941,7.7199 -15.49024,7.8281 -9.8151,0.1507 -18.27251,-6.8485 -19.91406,-16.4805 l 39.18555,0 -0.004,0.018 10.04297,0 c 0.1596,-1.2931 0.23528,-2.5954 0.22656,-3.8984 l 0,-0.035 c -0.28093,-16.5572 -13.84414,-29.75149 -30.29687,-29.47268 z m 0.10351,10.28906 c 9.32469,-0.1442 17.49764,6.1797 19.65625,15.209 l -38.64453,0 c 2.10053,-8.7881 9.91318,-15.0458 18.98828,-15.209 z"
       id="path4830"
       inkscape:connector-curvature="0"
       sodipodi:nodetypes="cccccccccccccccccc" />
    <path
       style="opacity:1;fill:#068be9;fill-opacity:1;stroke:#93cdf5;stroke-width:0;stroke-linecap:butt;stroke-miterlimit:4;stroke-dasharray:none;stroke-opacity:1"
       d="m 138.66587,983.51513 c -1.39318,0 -2.51563,1.30488 -2.51563,2.92383 l 0,1.68164 c -0.036,-0.0364 -0.0694,-0.077 -0.10547,-0.11328 0.01,0.29719 0.0195,0.59453 0.0195,0.89453 l 0,26.82605 c 0,12.9744 -8.98911,23.418 -20.1543,23.418 l -0.20703,0 0,0 -0.20313,0 c -11.16519,0 -20.154294,-10.4436 -20.154294,-23.418 l 0,-26.82604 c 0,-0.3 0.01,-0.59735 0.0195,-0.89454 -0.0361,0.0363 -0.0695,0.0769 -0.10547,0.11329 l 0,-1.68165 c 0,-1.61894 -1.12245,-2.92382 -2.51563,-2.92382 l -5.52734,0 0.002,0.006 c -1.39319,0 -2.51562,1.30294 -2.51562,2.92187 l 0,28.43349 c 0,0.074 0.0129,0.1408 0.0176,0.2129 0,19.8153 13.729,35.7675 30.781254,35.7675 0.0688,0 0.13636,-0.01 0.20507,-0.01 l 0,0 c 0.0674,3e-4 0.13368,0.01 0.20118,0.01 17.05225,0 30.78125,-15.9522 30.78125,-35.7675 0.005,-0.072 0.0176,-0.1389 0.0176,-0.2129 l 0,-28.43349 c 0,-1.61893 -1.12243,-2.92187 -2.51562,-2.92187 l 0.002,-0.006 0,-0.004 -5.52734,0 z"
       id="path4846"
       inkscape:connector-curvature="0" />
  </g>
</svg>
